<svg width="38" height="38" viewBox="0 0 38 38" fill="none" xmlns="http://www.w3.org/2000/svg">
<path d="M1.65613 13.6666C3.46565 17.8604 7.6981 20.8081 12.6053 20.8081C14.9669 20.8081 17.1444 20.1395 18.9846 18.9848C18.7086 19.0151 18.4326 19.0151 18.1565 19.0151C11.5625 19.0151 6.25661 13.7274 6.25661 7.22414C6.25661 6.2213 6.37929 5.27923 6.62465 4.36756C3.68034 6.46441 1.74814 9.83761 1.65613 13.6666Z" fill="white"/>
<path d="M5.67393 31.2315C10.2744 31.7785 14.9362 29.6209 17.4205 25.3968C18.5859 23.3911 19.1073 21.1727 19.0153 18.9847C18.8927 19.2278 18.77 19.4709 18.6166 19.714C15.3349 25.3664 8.03552 27.2809 2.33092 24.0293C1.47217 23.5431 0.674738 22.9353 0 22.2971C0.368039 25.883 2.36158 29.2259 5.67393 31.2315Z" fill="white"/>
<path d="M23.0331 36.5497C25.7933 32.8727 26.2534 27.7977 23.7998 23.5736C22.6343 21.5679 20.9475 20.018 19.0153 19.0152C19.1686 19.2279 19.322 19.471 19.4447 19.7141C22.7264 25.3665 20.7941 32.5688 15.0895 35.8508C14.2308 36.337 13.3107 36.7321 12.4213 36.9752C15.7029 38.4339 19.6287 38.3731 23.0331 36.5497Z" fill="white"/>
<path d="M36.3439 24.3332C34.5343 20.1395 30.3019 17.1918 25.3947 17.1918C23.0331 17.1918 20.8556 17.8603 19.0154 19.0151C19.2914 18.9847 19.5674 18.9847 19.8435 18.9847C26.4375 18.9847 31.7434 24.2725 31.7434 30.7757C31.7434 31.7786 31.6207 32.7206 31.3753 33.6323C34.3197 31.5355 36.2519 28.1623 36.3439 24.3332Z" fill="white"/>
<path d="M32.3261 6.7683C27.7256 6.2213 23.0638 8.37893 20.5795 12.603C19.4141 14.6087 18.8927 16.8271 18.9847 19.0151C19.1074 18.772 19.2301 18.5289 19.3834 18.2858C22.6651 12.6334 29.9645 10.7189 35.6691 13.9705C36.5279 14.4568 37.3253 15.0645 38 15.7027C37.632 12.1168 35.6385 8.77399 32.3261 6.7683Z" fill="white"/>
<path d="M14.967 1.45031C12.2067 5.1274 11.7466 10.2024 14.2002 14.4265C15.3657 16.4322 17.0525 17.982 18.9847 18.9849C18.8314 18.7721 18.678 18.529 18.5553 18.2859C15.2737 12.6335 17.2059 5.43128 22.9105 2.14925C23.7692 1.66303 24.6893 1.26797 25.5787 1.02486C22.2971 -0.433821 18.3713 -0.373045 14.967 1.45031Z" fill="white"/>
</svg>
